<svg viewBox="0 0 120 120" xmlns="http://www.w3.org/2000/svg"><defs><clipPath id="c-sk"><circle cx="60" cy="60" r="56"/></clipPath><linearGradient id="sk-bg" x1="0%" y1="0%" x2="100%" y2="100%"><stop offset="0%" stop-color="#1f2937"/><stop offset="100%" stop-color="#111827"/></linearGradient><linearGradient id="sk1" x1="0%" y1="0%" x2="100%" y2="80%"><stop offset="0%" stop-color="#d1d5db"/><stop offset="100%" stop-color="#9ca3af"/></linearGradient><linearGradient id="sk2" x1="20%" y1="0%" x2="80%" y2="100%"><stop offset="0%" stop-color="#9ca3af"/><stop offset="100%" stop-color="#6b7280"/></linearGradient></defs><rect width="120" height="120" fill="url(#sk-bg)"/><g clip-path="url(#c-sk)"><rect width="120" height="120" fill="url(#sk-bg)"/><path d="M15,90 Q8,72 15,52 Q26,28 55,20 Q78,16 95,38 Q84,58 80,82 Q76,106 84,120 L62,120 Q54,106 54,86 Q54,66 46,56 Q36,62 32,82 Q32,102 40,120 L18,120 Q8,108 15,90 Z" fill="url(#sk1)"/><path d="M55,20 Q82,12 102,38 Q92,66 88,94 Q84,118 92,120 L70,120 Q64,110 66,88 Q68,64 55,20 Z" fill="url(#sk2)"/><path d="M80,55 Q92,44 108,58 Q116,76 110,94 Q100,102 88,96 Q80,84 80,55 Z" fill="url(#sk1)"/><path d="M88,96 Q100,110 92,120 L74,120 Q82,112 88,102 Q90,99 88,96 Z" fill="url(#sk2)"/><path d="M38,48 Q54,36 70,48 Q64,70 58,92 Q50,108 44,104 Q36,94 38,48 Z" fill="url(#sk2)" opacity="0.5"/><path d="M62,12 Q80,4 98,20 Q88,36 80,32 Q72,26 62,12 Z" fill="url(#sk1)" opacity="0.8"/><path d="M50,8 Q62,2 78,10 Q70,20 62,16 Q56,12 50,8 Z" fill="url(#sk2)" opacity="0.6"/><path d="M90,60 Q95,55 102,60 L100,65 Q95,62 90,65 L90,60 Z" fill="url(#sk-bg)" opacity="0.8"/><path d="M22,65 Q30,58 38,68 Q34,78 28,74 Q22,70 22,65 Z" fill="url(#sk1)" opacity="0.4"/><path d="M18,85 Q26,78 34,88 Q30,98 24,94 Q18,90 18,85 Z" fill="url(#sk2)" opacity="0.35"/></g><circle cx="60" cy="60" r="56" fill="none" stroke="#d1d5db" stroke-width="3"/></svg>
