<svg viewBox="0 0 120 120" xmlns="http://www.w3.org/2000/svg"><defs><clipPath id="c"><circle cx="60" cy="60" r="56"/></clipPath><linearGradient id="bg" x1="0%" y1="0%" x2="100%" y2="100%"><stop offset="0%" stop-color="#1e1b18"/><stop offset="100%" stop-color="#0d0c0a"/></linearGradient><linearGradient id="g1" x1="0%" y1="0%" x2="100%" y2="80%"><stop offset="0%" stop-color="#d4c8be"/><stop offset="100%" stop-color="#a39585"/></linearGradient><linearGradient id="g2" x1="20%" y1="0%" x2="80%" y2="100%"><stop offset="0%" stop-color="#c4b5a5"/><stop offset="100%" stop-color="#8b7b68"/></linearGradient></defs><rect width="120" height="120" fill="url(#bg)"/><g clip-path="url(#c)"><rect width="120" height="120" fill="url(#bg)"/><path d="M18,82 Q12,65 18,48 Q28,28 50,20 Q68,16 82,30 Q72,48 68,68 Q64,88 72,105 L55,112 Q46,96 46,78 Q46,60 38,50 Q28,56 24,74 Q24,92 32,108 L16,108 Q10,98 18,82 Z" fill="url(#g1)"/><path d="M50,20 Q72,12 92,30 Q80,52 76,75 Q72,98 80,115 L62,120 Q56,102 58,82 Q60,62 50,20 Z" fill="url(#g2)"/><path d="M72,58 Q84,48 100,62 Q108,78 100,94 Q88,100 76,92 Q68,80 72,58 Z" fill="url(#g1)"/><path d="M76,92 Q88,106 80,120 L62,120 Q70,108 74,98 Q76,95 76,92 Z" fill="url(#g2)"/><path d="M34,42 Q48,30 62,40 Q58,56 52,72 Q44,86 38,82 Q30,72 34,42 Z" fill="url(#g2)" opacity="0.5"/><path d="M58,12 Q72,4 88,14 Q80,26 72,22 Q65,18 58,12 Z" fill="url(#g1)" opacity="0.7"/><path d="M22,60 Q18,50 25,55 Q28,62 22,60 Z" fill="url(#g2)" opacity="0.4"/><path d="M20,75 Q16,68 22,72 Q26,80 20,78 L20,75 Z" fill="url(#g1)" opacity="0.3"/></g><circle cx="60" cy="60" r="56" fill="none" stroke="#a39585" stroke-width="3"/></svg>