<svg viewBox="0 0 120 120" xmlns="http://www.w3.org/2000/svg"><defs><clipPath id="c"><circle cx="60" cy="60" r="56"/></clipPath><linearGradient id="bg" x1="0%" y1="0%" x2="100%" y2="100%"><stop offset="0%" stop-color="#581c87"/><stop offset="100%" stop-color="#3b0764"/></linearGradient><linearGradient id="g1" x1="0%" y1="0%" x2="100%" y2="80%"><stop offset="0%" stop-color="#c084fc"/><stop offset="100%" stop-color="#a855f7"/></linearGradient><linearGradient id="g2" x1="20%" y1="0%" x2="80%" y2="100%"><stop offset="0%" stop-color="#a855f7"/><stop offset="100%" stop-color="#9333ea"/></linearGradient></defs><rect width="120" height="120" fill="url(#bg)"/><g clip-path="url(#c)"><rect width="120" height="120" fill="url(#bg)"/><path d="M15,82 Q8,64 15,45 Q26,24 50,18 Q70,14 85,30 Q74,50 70,72 Q66,94 74,114 L56,120 Q48,102 48,82 Q48,62 40,52 Q30,58 26,78 Q26,98 34,116 L14,116 Q6,104 15,82 Z" fill="url(#g1)"/><path d="M50,18 Q74,10 95,30 Q84,54 78,80 Q74,104 82,120 L64,120 Q58,106 60,84 Q62,62 50,18 Z" fill="url(#g2)"/><path d="M72,62 Q85,52 102,66 Q110,82 102,98 Q90,104 78,96 Q70,84 72,62 Z" fill="url(#g1)"/><path d="M78,96 Q90,110 82,120 L66,120 Q74,112 78,102 Q80,99 78,96 Z" fill="url(#g2)"/><path d="M32,44 Q48,32 64,44 Q58,62 52,80 Q44,96 38,92 Q30,82 32,44 Z" fill="url(#g2)" opacity="0.5"/><path d="M58,10 Q74,2 92,14 Q82,28 74,24 Q66,18 58,10 Z" fill="url(#g1)" opacity="0.7"/><path d="M48,60 L52,60 L52,64 L48,64 Z" fill="url(#bg)" opacity="0.8"/><path d="M62,70 L66,70 L66,74 L62,74 Z" fill="url(#bg)" opacity="0.6"/></g><circle cx="60" cy="60" r="56" fill="none" stroke="#c084fc" stroke-width="3"/></svg>