<svg viewBox="0 0 120 120" xmlns="http://www.w3.org/2000/svg"><defs><clipPath id="c"><circle cx="60" cy="60" r="56"/></clipPath><linearGradient id="bg" x1="0%" y1="0%" x2="100%" y2="100%"><stop offset="0%" stop-color="#78350f"/><stop offset="100%" stop-color="#451a03"/></linearGradient><linearGradient id="g1" x1="0%" y1="0%" x2="100%" y2="80%"><stop offset="0%" stop-color="#fbbf24"/><stop offset="100%" stop-color="#d97706"/></linearGradient><linearGradient id="g2" x1="20%" y1="0%" x2="80%" y2="100%"><stop offset="0%" stop-color="#f59e0b"/><stop offset="100%" stop-color="#b45309"/></linearGradient></defs><rect width="120" height="120" fill="url(#bg)"/><g clip-path="url(#c)"><rect width="120" height="120" fill="url(#bg)"/><path d="M25,75 Q20,60 28,45 Q40,30 60,28 Q75,28 82,40 Q72,50 68,62 Q65,75 70,88 L58,92 Q50,82 48,68 Q46,55 38,50 Q30,55 28,68 Q28,78 32,88 L25,90 Q22,82 25,75 Z" fill="url(#g1)"/><path d="M60,28 Q78,25 90,38 Q82,52 78,68 Q75,82 80,95 L72,98 Q68,85 68,70 Q68,55 60,28 Z" fill="url(#g2)"/><path d="M70,58 Q78,52 88,58 Q92,66 88,74 Q82,78 75,74 Q70,68 70,58 Z" fill="url(#g1)"/><path d="M75,74 Q82,82 78,92 Q72,98 65,95 Q70,88 72,80 Q74,77 75,74 Z" fill="url(#g2)"/><path d="M38,42 Q48,35 58,38 Q55,48 50,58 Q45,68 40,65 Q36,58 38,42 Z" fill="url(#g2)" opacity="0.7"/><path d="M45,25 Q55,18 68,22 Q62,32 58,28 Q52,25 45,25 Z" fill="url(#g1)" opacity="0.5"/></g><circle cx="60" cy="60" r="56" fill="none" stroke="#fbbf24" stroke-width="3"/></svg>