<svg viewBox="0 0 120 120" xmlns="http://www.w3.org/2000/svg"><defs><clipPath id="c"><circle cx="60" cy="60" r="56"/></clipPath><linearGradient id="bg" x1="0%" y1="0%" x2="100%" y2="100%"><stop offset="0%" stop-color="#374151"/><stop offset="100%" stop-color="#1f2937"/></linearGradient><linearGradient id="g1" x1="0%" y1="0%" x2="100%" y2="80%"><stop offset="0%" stop-color="#9ca3af"/><stop offset="100%" stop-color="#6b7280"/></linearGradient><linearGradient id="g2" x1="20%" y1="0%" x2="80%" y2="100%"><stop offset="0%" stop-color="#6b7280"/><stop offset="100%" stop-color="#4b5563"/></linearGradient></defs><rect width="120" height="120" fill="url(#bg)"/><g clip-path="url(#c)"><rect width="120" height="120" fill="url(#bg)"/><path d="M16,82 Q8,64 16,44 Q28,22 54,16 Q74,12 90,30 Q78,50 74,74 Q70,98 78,118 L58,120 Q50,104 50,82 Q50,62 42,52 Q32,58 28,78 Q28,98 36,116 L16,116 Q6,104 16,82 Z" fill="url(#g1)" opacity="0.7"/><path d="M54,16 Q78,8 98,30 Q86,56 82,82 Q78,106 86,120 L66,120 Q60,106 62,84 Q64,62 54,16 Z" fill="url(#g2)" opacity="0.6"/><path d="M74,62 Q88,52 104,68 Q112,86 104,102 Q92,108 80,100 Q72,88 74,62 Z" fill="url(#g1)" opacity="0.75"/><path d="M80,100 Q92,114 84,120 L68,120 Q76,112 80,104 Q82,101 80,100 Z" fill="url(#g2)" opacity="0.65"/><path d="M34,44 Q50,32 66,44 Q60,64 54,84 Q46,100 40,96 Q32,86 34,44 Z" fill="url(#g2)" opacity="0.4"/><path d="M60,8 Q76,0 94,14 Q84,28 76,24 Q68,18 60,8 Z" fill="url(#g1)" opacity="0.55"/><path d="M18,56 Q26,48 32,58 Q28,68 22,64 Q18,60 18,56 Z" fill="url(#g2)" opacity="0.35"/><path d="M14,74 Q22,66 28,78 Q24,88 18,84 Q14,80 14,74 Z" fill="url(#g1)" opacity="0.3"/></g><circle cx="60" cy="60" r="56" fill="none" stroke="#9ca3af" stroke-width="3"/></svg>