<svg viewBox="0 0 120 120" xmlns="http://www.w3.org/2000/svg"><defs><clipPath id="c"><circle cx="60" cy="60" r="56"/></clipPath><linearGradient id="bg" x1="0%" y1="0%" x2="100%" y2="100%"><stop offset="0%" stop-color="#3f3f46"/><stop offset="100%" stop-color="#18181b"/></linearGradient><linearGradient id="g1" x1="0%" y1="0%" x2="100%" y2="80%"><stop offset="0%" stop-color="#fbbf24"/><stop offset="100%" stop-color="#f59e0b"/></linearGradient><linearGradient id="g2" x1="20%" y1="0%" x2="80%" y2="100%"><stop offset="0%" stop-color="#f59e0b"/><stop offset="100%" stop-color="#d97706"/></linearGradient></defs><rect width="120" height="120" fill="url(#bg)"/><g clip-path="url(#c)"><rect width="120" height="120" fill="url(#bg)"/><path d="M20,85 Q14,68 20,50 Q30,30 52,22 Q70,18 85,32 Q74,50 70,70 Q66,90 74,108 L56,114 Q48,98 48,80 Q48,62 40,52 Q30,58 26,76 Q26,94 34,110 L18,110 Q12,100 20,85 Z" fill="url(#g1)"/><path d="M52,22 Q75,14 95,32 Q84,54 78,78 Q74,100 82,118 L64,120 Q58,104 60,84 Q62,64 52,22 Z" fill="url(#g2)"/><path d="M74,60 Q86,50 102,64 Q110,80 102,96 Q90,102 78,94 Q70,82 74,60 Z" fill="url(#g1)"/><path d="M78,94 Q90,108 82,120 L66,120 Q74,110 78,100 Q80,97 78,94 Z" fill="url(#g2)"/><path d="M36,44 Q50,32 65,42 Q60,58 54,74 Q46,88 40,84 Q32,74 36,44 Z" fill="url(#g2)" opacity="0.6"/><path d="M60,14 Q74,6 90,16 Q82,28 74,24 Q68,20 60,14 Z" fill="url(#g1)" opacity="0.7"/></g><circle cx="60" cy="60" r="56" fill="none" stroke="#fbbf24" stroke-width="3"/></svg>