<?xml version="1.0" standalone="no"?>
<!DOCTYPE svg PUBLIC "-//W3C//DTD SVG 20010904//EN"
 "http://www.w3.org/TR/2001/REC-SVG-20010904/DTD/svg10.dtd">
<svg version="1.0" xmlns="http://www.w3.org/2000/svg"
 width="300.000000pt" height="225.000000pt" viewBox="0 0 300.000000 225.000000"
 preserveAspectRatio="xMidYMid meet">
<metadata>
Created by potrace 1.10, written by Peter Selinger 2001-2011
</metadata>
<g transform="translate(0.000000,225.000000) scale(0.100000,-0.100000)"
fill="#000000" stroke="none">
<path d="M568 1385 c-26 -24 -41 -85 -41 -167 0 -33 -7 -35 -163 -44 -78 -4
-113 -3 -118 5 -11 17 -51 13 -69 -7 -10 -10 -17 -34 -17 -54 0 -56 51 -87 89
-54 13 11 45 12 147 8 l131 -5 13 -71 c7 -39 16 -77 20 -85 6 -11 80 -44 86
-38 1 1 -8 34 -22 72 -36 107 -41 101 85 101 l110 1 3 -26 c2 -21 9 -26 36
-27 18 -1 35 2 38 7 3 5 -9 9 -25 9 l-31 0 0 140 0 140 30 0 c17 0 30 5 30 11
0 7 -9 9 -22 5 -13 -3 -29 -6 -35 -6 -9 0 -13 -22 -13 -75 l0 -75 -99 0 c-132
0 -143 -18 -14 -22 97 -3 98 -3 98 -28 l0 -25 -90 3 c-49 2 -98 6 -107 8 -12
4 -18 0 -18 -11 0 -26 -26 -28 -54 -4 -30 26 -36 88 -11 109 8 7 15 25 15 41
0 49 31 47 44 -4 6 -25 8 -26 22 -12 8 8 30 15 47 16 52 1 117 10 140 19 15 6
-17 9 -95 9 -65 1 -118 2 -118 4 0 12 21 123 25 138 9 27 -15 24 -47 -6z
m-300 -254 c6 -43 -62 -61 -70 -18 -7 37 2 48 36 45 24 -2 32 -8 34 -27z m242
12 c-1 -28 -21 -35 -101 -34 -104 1 -135 22 -49 33 57 8 150 8 150 1z"/>
<path d="M2160 1331 c0 -6 16 -11 35 -11 l35 0 2 -130 c1 -71 2 -147 3 -167 0
-36 -2 -38 -32 -41 -18 -2 -33 -8 -33 -14 0 -6 10 -8 23 -4 12 3 30 6 40 6 11
0 17 8 17 25 0 23 4 25 48 25 230 1 275 11 431 94 l74 39 -54 25 c-78 34 -202
82 -214 82 -5 0 19 -13 55 -29 36 -16 88 -38 115 -51 l50 -23 -29 -8 c-16 -4
-33 -6 -37 -4 -4 3 -5 -3 -3 -12 3 -14 -11 -25 -58 -48 -60 -28 -70 -30 -194
-31 -73 -1 -144 -4 -158 -8 l-26 -6 -1 112 c-1 198 2 183 -46 186 -26 2 -43
-1 -43 -7z"/>
<path d="M1060 1188 c-29 -102 -32 -107 -38 -83 -2 11 -9 31 -14 45 -7 20 -11
22 -18 10 -6 -8 -10 -28 -10 -44 0 -47 -16 -18 -28 53 -11 64 -17 79 -28 69
-6 -7 34 -180 46 -191 4 -5 11 10 15 32 8 50 21 53 29 6 4 -19 10 -36 15 -39
4 -3 20 39 36 92 15 53 30 103 32 110 3 6 1 12 -5 12 -6 0 -20 -33 -32 -72z"/>
<path d="M1701 1204 c-6 -32 -11 -70 -11 -86 0 -15 -4 -28 -10 -28 -5 0 -10
14 -10 31 0 44 -21 32 -39 -22 l-15 -44 -14 93 c-8 50 -18 92 -23 92 -12 0
-11 -5 9 -125 10 -55 22 -99 27 -98 5 1 16 26 25 55 l17 53 8 -47 c9 -58 22
-62 30 -10 4 20 13 69 20 107 7 39 10 74 6 78 -5 4 -13 -18 -20 -49z"/>
<path d="M2260 1250 c0 -15 54 -15 195 0 63 7 56 7 -62 9 -83 0 -133 -3 -133
-9z"/>
<path d="M1432 1209 c-5 -13 -11 -31 -14 -39 -3 -10 -10 -4 -23 18 -11 18 -23
32 -28 32 -9 0 9 -37 30 -62 12 -14 13 -26 4 -68 -14 -63 -14 -80 -1 -80 6 0
10 9 10 20 0 10 9 58 20 106 20 83 20 123 2 73z"/>
<path d="M1850 1227 c0 -1 -9 -32 -19 -70 -11 -37 -15 -67 -10 -67 5 0 11 11
15 25 7 30 34 34 34 5 0 -11 4 -20 9 -20 5 0 8 12 6 28 -2 15 -4 44 -4 65 -1
26 -5 37 -16 37 -8 0 -15 -1 -15 -3z"/>
<path d="M1923 1213 c-19 -12 -23 -25 -23 -64 0 -27 5 -49 10 -49 6 0 10 9 10
21 0 12 14 34 31 50 46 43 22 78 -28 42z m37 -12 c0 -11 -29 -35 -35 -29 -10
9 7 38 21 38 8 0 14 -4 14 -9z"/>
<path d="M2150 1173 l0 -57 -50 49 -50 49 0 -57 c0 -31 4 -57 9 -57 6 0 7 16
4 35 -3 19 -3 35 0 35 3 0 21 -16 40 -35 44 -44 57 -44 57 -1 0 18 3 48 6 65
4 20 3 31 -5 31 -7 0 -11 -21 -11 -57z"/>
<path d="M1199 1207 c-18 -13 -34 -117 -19 -117 6 0 10 9 10 20 0 19 2 20 30
5 34 -17 40 -18 40 -6 0 5 -14 14 -30 20 -37 12 -48 37 -27 59 23 23 34 6 12
-18 -10 -11 -13 -20 -7 -20 6 0 19 11 28 25 25 38 -1 60 -37 32z"/>
<path d="M1769 1207 c-22 -8 -28 -18 -33 -59 -4 -27 -4 -53 -1 -58 8 -13 52
-13 60 0 4 6 -5 10 -19 10 -19 0 -26 5 -26 20 0 11 6 20 14 20 8 0 18 5 22 12
5 8 0 9 -14 6 -35 -9 -27 21 8 33 17 6 30 15 30 20 0 11 -7 10 -41 -4z"/>
<path d="M1105 1180 c-25 -48 -13 -110 21 -110 17 0 44 57 44 93 0 51 -42 62
-65 17z m45 -21 c0 -36 -17 -72 -31 -64 -13 9 -11 62 3 84 16 26 28 17 28 -20z"/>
<path d="M1280 1200 c-6 -56 -3 -110 5 -110 5 0 25 14 43 31 33 31 41 59 20
77 -13 10 -68 12 -68 2z m65 -21 c7 -11 -31 -59 -47 -59 -10 0 -11 54 -1 63
10 11 41 8 48 -4z"/>
<path d="M1985 1180 c-9 -17 -13 -39 -10 -50 16 -50 69 -16 63 41 -4 46 -32
50 -53 9z m45 -8 c0 -10 -6 -26 -13 -37 -18 -23 -32 -4 -23 31 7 28 36 33 36
6z"/>
<path d="M2325 1140 l-70 -6 105 -4 c144 -7 290 -1 290 10 0 11 -206 11 -325
0z"/>
<path d="M1355 910 c-28 -7 -27 -8 13 -9 23 0 42 4 42 9 0 11 -11 11 -55 0z"/>
<path d="M980 900 c-11 -7 -3 -10 28 -10 26 0 41 4 37 10 -8 13 -45 13 -65 0z"/>
<path d="M1090 900 c0 -5 16 -10 35 -10 19 0 35 5 35 10 0 6 -16 10 -35 10
-19 0 -35 -4 -35 -10z"/>
<path d="M1218 898 c8 -8 20 -8 44 -1 l33 11 -44 1 c-34 1 -42 -2 -33 -11z"/>
<path d="M1460 900 c0 -5 15 -10 34 -10 19 0 38 5 41 10 4 6 -10 10 -34 10
-23 0 -41 -4 -41 -10z"/>
<path d="M1590 900 c0 -5 18 -10 40 -10 22 0 40 5 40 10 0 6 -18 10 -40 10
-22 0 -40 -4 -40 -10z"/>
<path d="M1710 900 c0 -5 18 -10 40 -10 22 0 40 5 40 10 0 6 -18 10 -40 10
-22 0 -40 -4 -40 -10z"/>
<path d="M1830 900 c0 -5 15 -10 34 -10 19 0 38 5 41 10 4 6 -10 10 -34 10
-23 0 -41 -4 -41 -10z"/>
<path d="M1945 900 c-4 -6 10 -10 34 -10 23 0 41 5 41 10 0 6 -15 10 -34 10
-19 0 -38 -4 -41 -10z"/>
<path d="M2195 901 c-22 -3 -35 -9 -30 -12 14 -9 75 1 75 12 0 5 -1 8 -2 8 -2
-1 -21 -5 -43 -8z"/>
</g>
</svg>
