<svg viewBox="0 0 120 120" xmlns="http://www.w3.org/2000/svg"><defs><clipPath id="c-m"><circle cx="60" cy="60" r="56"/></clipPath><linearGradient id="m-bg" x1="0%" y1="0%" x2="100%" y2="100%"><stop offset="0%" stop-color="#431407"/><stop offset="100%" stop-color="#1c0a00"/></linearGradient><linearGradient id="m1" x1="0%" y1="0%" x2="100%" y2="80%"><stop offset="0%" stop-color="#fb923c"/><stop offset="100%" stop-color="#ea580c"/></linearGradient><linearGradient id="m2" x1="20%" y1="0%" x2="80%" y2="100%"><stop offset="0%" stop-color="#f97316"/><stop offset="100%" stop-color="#c2410c"/></linearGradient></defs><rect width="120" height="120" fill="url(#m-bg)"/><g clip-path="url(#c-m)"><rect width="120" height="120" fill="url(#m-bg)"/><path d="M12,120 L12,92 Q18,84 25,80 L32,82 Q36,92 38,105 L40,120 Z" fill="url(#m1)" opacity="0.35"/><path d="M20,70 Q14,52 20,35 Q28,18 48,12 Q62,8 72,18 Q64,30 60,44 Q56,60 62,74 Q55,82 44,86 L26,82 Q22,78 20,70 Z" fill="url(#m1)"/><path d="M48,12 Q65,4 78,14 Q68,26 64,42 Q60,56 64,68 L58,72 Q54,64 52,52 Q50,36 48,12 Z" fill="url(#m2)"/><path d="M64,62 Q70,58 78,62 Q82,68 78,74 Q72,76 66,72 Q62,68 64,62 Z" fill="url(#m1)"/><path d="M66,72 Q72,78 68,86 Q62,90 56,88 Q60,82 62,76 Q64,74 66,72 Z" fill="url(#m2)"/><path d="M56,88 Q50,92 42,92 Q38,88 46,84 Q52,84 56,88 Z" fill="url(#m1)" opacity="0.8"/><path d="M28,42 Q35,34 45,32 Q42,42 38,52 Q34,60 30,56 Q28,52 28,42 Z" fill="url(#m2)" opacity="0.5"/><path d="M78,14 Q92,22 94,42 Q92,58 85,70 Q78,66 78,62 Q86,52 84,38 Q82,26 78,14 Z" fill="url(#m1)" opacity="0.25"/><path d="M72,18 Q78,10 88,8 Q95,15 92,22 L78,14 Q74,15 72,18 Z" fill="url(#m2)" opacity="0.4"/></g><circle cx="60" cy="60" r="56" fill="none" stroke="#f97316" stroke-width="3"/></svg>