<svg viewBox="0 0 120 120" xmlns="http://www.w3.org/2000/svg"><defs><clipPath id="c-r"><circle cx="60" cy="60" r="56"/></clipPath><linearGradient id="r-bg" x1="0%" y1="0%" x2="100%" y2="100%"><stop offset="0%" stop-color="#14532d"/><stop offset="100%" stop-color="#052e16"/></linearGradient><linearGradient id="r1" x1="0%" y1="0%" x2="100%" y2="80%"><stop offset="0%" stop-color="#22c55e"/><stop offset="100%" stop-color="#15803d"/></linearGradient><linearGradient id="r2" x1="20%" y1="0%" x2="80%" y2="100%"><stop offset="0%" stop-color="#16a34a"/><stop offset="100%" stop-color="#166534"/></linearGradient></defs><rect width="120" height="120" fill="url(#r-bg)"/><g clip-path="url(#c-r)"><rect width="120" height="120" fill="url(#r-bg)"/><path d="M10,120 L10,90 Q15,82 22,78 L28,80 Q32,88 35,100 L38,120 Z" fill="url(#r1)" opacity="0.4"/><path d="M18,72 Q12,55 16,38 Q22,22 40,15 Q55,10 65,18 Q58,28 55,40 Q52,55 58,68 Q52,75 42,80 L25,78 Q20,75 18,72 Z" fill="url(#r1)"/><path d="M40,15 Q55,5 70,12 Q62,22 58,35 Q55,48 58,58 L54,62 Q50,55 48,44 Q46,30 40,15 Z" fill="url(#r2)"/><path d="M58,55 Q64,52 72,55 Q76,60 73,66 Q68,68 62,65 Q57,62 58,55 Z" fill="url(#r1)"/><path d="M62,65 Q68,70 65,78 Q60,82 54,80 Q58,75 60,70 Q61,67 62,65 Z" fill="url(#r2)"/><path d="M54,80 Q48,85 40,86 Q36,82 44,78 Q50,77 54,80 Z" fill="url(#r1)" opacity="0.8"/><path d="M22,40 Q28,32 38,30 Q35,38 32,48 Q28,55 24,52 Q22,48 22,40 Z" fill="url(#r2)" opacity="0.6"/><path d="M70,12 Q85,18 88,35 Q88,50 82,62 Q75,58 72,55 Q80,45 78,32 Q75,20 70,12 Z" fill="url(#r1)" opacity="0.3"/><path d="M82,62 Q90,55 100,58 Q105,65 98,72 Q90,70 82,62 Z" fill="url(#r2)" opacity="0.5"/></g><circle cx="60" cy="60" r="56" fill="none" stroke="#22c55e" stroke-width="3"/></svg>