<svg viewBox="0 0 120 120" xmlns="http://www.w3.org/2000/svg"><defs><clipPath id="c-a"><circle cx="60" cy="60" r="56"/></clipPath><linearGradient id="a-bg" x1="0%" y1="0%" x2="100%" y2="100%"><stop offset="0%" stop-color="#1e1b4b"/><stop offset="100%" stop-color="#0f0a1e"/></linearGradient><linearGradient id="a1" x1="0%" y1="0%" x2="100%" y2="80%"><stop offset="0%" stop-color="#a855f7"/><stop offset="100%" stop-color="#7e22ce"/></linearGradient><linearGradient id="a2" x1="20%" y1="0%" x2="80%" y2="100%"><stop offset="0%" stop-color="#9333ea"/><stop offset="100%" stop-color="#581c87"/></linearGradient></defs><rect width="120" height="120" fill="url(#a-bg)"/><g clip-path="url(#c-a)"><rect width="120" height="120" fill="url(#a-bg)"/><path d="M18,120 L18,96 Q22,88 28,84 L34,86 Q37,95 38,108 L40,120 Z" fill="url(#a1)" opacity="0.3"/><path d="M24,76 Q18,58 24,40 Q32,22 52,16 Q68,12 78,22 Q70,34 66,48 Q62,64 68,78 Q62,86 50,90 L32,86 Q28,82 24,76 Z" fill="url(#a1)"/><path d="M52,16 Q70,8 84,18 Q74,30 70,46 Q66,60 70,72 L64,76 Q60,68 58,56 Q56,40 52,16 Z" fill="url(#a2)"/><path d="M70,66 Q76,62 84,66 Q88,72 84,78 Q78,80 72,76 Q68,72 70,66 Z" fill="url(#a1)"/><path d="M72,76 Q78,82 74,90 Q68,94 62,92 Q66,86 68,80 Q70,78 72,76 Z" fill="url(#a2)"/><path d="M62,92 Q56,96 48,96 Q44,92 52,88 Q58,88 62,92 Z" fill="url(#a1)" opacity="0.8"/><path d="M32,46 Q40,38 50,36 Q47,46 44,56 Q40,64 36,60 Q34,56 32,46 Z" fill="url(#a2)" opacity="0.5"/><path d="M84,18 Q98,26 100,46 Q98,62 90,74 Q84,70 84,66 Q92,56 90,42 Q88,30 84,18 Z" fill="url(#a1)" opacity="0.25"/><path d="M78,22 Q84,14 94,12 Q102,20 98,28 L84,18 Q80,19 78,22 Z" fill="url(#a2)" opacity="0.35"/></g><circle cx="60" cy="60" r="56" fill="none" stroke="#a855f7" stroke-width="3"/></svg>