<svg viewBox="0 0 120 120" xmlns="http://www.w3.org/2000/svg"><defs><clipPath id="c-ox"><circle cx="60" cy="60" r="56"/></clipPath><linearGradient id="ox-bg" x1="0%" y1="0%" x2="100%" y2="100%"><stop offset="0%" stop-color="#18181b"/><stop offset="100%" stop-color="#09090b"/></linearGradient><linearGradient id="ox1" x1="0%" y1="0%" x2="100%" y2="80%"><stop offset="0%" stop-color="#fafafa"/><stop offset="100%" stop-color="#a1a1aa"/></linearGradient><linearGradient id="ox2" x1="20%" y1="0%" x2="80%" y2="100%"><stop offset="0%" stop-color="#27272a"/><stop offset="100%" stop-color="#09090b"/></linearGradient></defs><rect width="120" height="120" fill="url(#ox-bg)"/><g clip-path="url(#c-ox)"><rect width="120" height="120" fill="url(#ox-bg)"/><path d="M16,82 Q8,64 16,44 Q28,22 54,16 Q74,12 90,30 Q80,52 76,76 Q72,100 80,120 L60,120 Q52,104 52,82 Q52,62 44,52 Q34,58 30,78 Q30,98 38,118 L16,118 Q6,106 16,82 Z" fill="url(#ox1)"/><path d="M54,16 Q78,8 98,30 Q88,58 84,86 Q80,112 88,120 L68,120 Q62,108 64,84 Q66,60 54,16 Z" fill="url(#ox2)"/><path d="M76,60 Q90,50 106,66 Q114,84 106,100 Q94,106 82,98 Q74,86 76,60 Z" fill="url(#ox1)"/><path d="M82,98 Q94,112 86,120 L70,120 Q78,112 82,102 Q84,99 82,98 Z" fill="url(#ox2)"/><path d="M36,44 Q52,32 68,44 Q62,66 56,88 Q48,104 42,100 Q34,90 36,44 Z" fill="url(#ox2)" opacity="0.6"/><path d="M62,8 Q78,0 96,14 Q86,30 78,26 Q70,20 62,8 Z" fill="url(#ox1)" opacity="0.8"/><path d="M20,60 Q28,52 35,62 Q30,72 24,68 Q20,64 20,60 Z" fill="url(#ox1)" opacity="0.5"/><path d="M16,78 Q24,70 32,80 Q28,90 22,86 Q16,82 16,78 Z" fill="url(#ox2)" opacity="0.4"/></g><circle cx="60" cy="60" r="56" fill="none" stroke="#71717a" stroke-width="3"/></svg>
