<svg viewBox="0 0 120 120" xmlns="http://www.w3.org/2000/svg"><defs><clipPath id="c-pd"><circle cx="60" cy="60" r="56"/></clipPath><linearGradient id="pd-bg" x1="0%" y1="0%" x2="100%" y2="100%"><stop offset="0%" stop-color="#1a1a1a"/><stop offset="100%" stop-color="#0a0a0a"/></linearGradient><linearGradient id="pd1" x1="0%" y1="0%" x2="100%" y2="80%"><stop offset="0%" stop-color="#525252"/><stop offset="100%" stop-color="#262626"/></linearGradient><linearGradient id="pd2" x1="20%" y1="0%" x2="80%" y2="100%"><stop offset="0%" stop-color="#404040"/><stop offset="100%" stop-color="#171717"/></linearGradient></defs><rect width="120" height="120" fill="url(#pd-bg)"/><g clip-path="url(#c-pd)"><rect width="120" height="120" fill="url(#pd-bg)"/><path d="M15,85 Q8,68 15,48 Q26,26 52,20 Q72,16 88,34 Q78,54 74,78 Q70,102 78,120 L58,120 Q50,104 50,82 Q50,62 42,52 Q32,58 28,78 Q28,100 36,118 L15,118 Q6,106 15,85 Z" fill="url(#pd1)"/><path d="M52,20 Q78,12 98,34 Q88,62 84,90 Q80,116 88,120 L68,120 Q62,108 64,85 Q66,62 52,20 Z" fill="url(#pd2)"/><path d="M74,50 Q82,42 95,48 Q102,56 100,68 Q96,78 92,85 Q88,92 82,95 Q75,92 72,85 Q68,76 70,65 Q72,55 74,50 Z" fill="url(#pd1)"/><path d="M92,85 Q100,78 110,85 Q115,95 108,105 Q98,110 92,102 Q88,95 92,85 Z" fill="url(#pd2)"/><path d="M82,95 Q90,105 85,115 L70,120 Q78,112 82,104 Q84,100 82,95 Z" fill="url(#pd1)"/><path d="M34,44 Q50,32 66,44 Q60,66 54,88 Q46,104 40,100 Q32,90 34,44 Z" fill="url(#pd2)" opacity="0.5"/><path d="M60,12 Q76,4 94,18 Q84,32 76,28 Q68,22 60,12 Z" fill="url(#pd1)" opacity="0.7"/></g><circle cx="60" cy="60" r="56" fill="none" stroke="#525252" stroke-width="3"/></svg>
