<svg viewBox="0 0 120 120" xmlns="http://www.w3.org/2000/svg"><defs><clipPath id="c"><circle cx="60" cy="60" r="56"/></clipPath><linearGradient id="bg" x1="0%" y1="0%" x2="100%" y2="100%"><stop offset="0%" stop-color="#1c1917"/><stop offset="100%" stop-color="#0c0a09"/></linearGradient><linearGradient id="g1" x1="0%" y1="0%" x2="100%" y2="80%"><stop offset="0%" stop-color="#ef4444"/><stop offset="100%" stop-color="#b91c1c"/></linearGradient><linearGradient id="g2" x1="20%" y1="0%" x2="80%" y2="100%"><stop offset="0%" stop-color="#dc2626"/><stop offset="100%" stop-color="#991b1b"/></linearGradient></defs><rect width="120" height="120" fill="url(#bg)"/><g clip-path="url(#c)"><rect width="120" height="120" fill="url(#bg)"/><path d="M18,82 Q10,64 18,44 Q30,22 55,16 Q75,12 92,30 Q80,52 76,76 Q72,100 80,120 L60,120 Q52,104 52,82 Q52,62 44,52 Q34,58 30,78 Q30,98 38,118 L18,118 Q8,106 18,82 Z" fill="url(#g1)"/><path d="M55,16 Q80,8 100,30 Q88,58 84,86 Q80,112 88,120 L68,120 Q62,108 64,84 Q66,60 55,16 Z" fill="url(#g2)"/><path d="M76,62 Q90,52 106,68 Q114,86 106,102 Q94,108 82,100 Q74,88 76,62 Z" fill="url(#g1)"/><path d="M82,100 Q94,114 86,120 L70,120 Q78,112 82,104 Q84,101 82,100 Z" fill="url(#g2)"/><path d="M36,44 Q52,32 68,44 Q62,66 56,88 Q48,104 42,100 Q34,90 36,44 Z" fill="url(#g2)" opacity="0.5"/><path d="M62,8 Q78,0 96,14 Q86,30 78,26 Q70,20 62,8 Z" fill="url(#g1)" opacity="0.8"/><rect x="30" y="55" width="40" height="12" fill="url(#bg)" opacity="0.9"/><rect x="32" y="57" width="36" height="8" fill="url(#g1)" opacity="0.6"/></g><circle cx="60" cy="60" r="56" fill="none" stroke="#ef4444" stroke-width="3"/></svg>