<svg viewBox="0 0 120 120" xmlns="http://www.w3.org/2000/svg"><defs><clipPath id="c"><circle cx="60" cy="60" r="56"/></clipPath><linearGradient id="bg" x1="0%" y1="0%" x2="100%" y2="100%"><stop offset="0%" stop-color="#1e1b4b"/><stop offset="100%" stop-color="#0f0a1e"/></linearGradient><linearGradient id="g1" x1="0%" y1="0%" x2="100%" y2="80%"><stop offset="0%" stop-color="#f472b6"/><stop offset="100%" stop-color="#db2777"/></linearGradient><linearGradient id="g2" x1="20%" y1="0%" x2="80%" y2="100%"><stop offset="0%" stop-color="#60a5fa"/><stop offset="100%" stop-color="#2563eb"/></linearGradient></defs><rect width="120" height="120" fill="url(#bg)"/><g clip-path="url(#c)"><rect width="120" height="120" fill="url(#bg)"/><path d="M8,85 Q4,70 10,55 Q18,38 35,32 Q48,28 58,38 Q52,50 50,65 Q48,80 54,95 L42,100 Q36,88 36,74 Q36,60 30,52 Q22,58 20,72 Q20,88 26,102 L10,102 Q4,94 8,85 Z" fill="url(#g1)"/><path d="M35,32 Q52,24 68,38 Q60,54 58,72 Q56,90 62,108 L48,112 Q44,96 46,78 Q48,60 35,32 Z" fill="url(#g1)" opacity="0.7"/><path d="M58,60 Q68,52 82,62 Q88,76 82,88 Q74,94 64,88 Q58,78 58,60 Z" fill="url(#g1)"/><path d="M62,88 Q72,100 66,112 L52,112 Q58,102 62,94 Q64,91 62,88 Z" fill="url(#g1)" opacity="0.8"/><path d="M65,85 Q60,70 65,55 Q72,40 88,35 Q100,32 110,42 Q102,54 100,68 Q98,82 104,96 L92,100 Q88,88 88,74 Q88,60 82,52 Q74,58 72,72 Q72,88 78,102 L65,102 Q60,94 65,85 Z" fill="url(#g2)"/><path d="M88,35 Q104,28 115,42 Q108,58 105,75 Q102,92 108,110 L95,114 Q92,98 94,80 Q96,62 88,35 Z" fill="url(#g2)" opacity="0.7"/><path d="M100,60 Q108,54 118,62 Q120,76 115,86 Q108,90 102,86 Q98,78 100,60 Z" fill="url(#g2)"/></g><circle cx="60" cy="60" r="56" fill="none" stroke="#a855f7" stroke-width="3"/></svg>