<svg viewBox="0 0 120 120" xmlns="http://www.w3.org/2000/svg"><defs><clipPath id="c-d"><circle cx="60" cy="60" r="56"/></clipPath><linearGradient id="d-bg" x1="0%" y1="0%" x2="100%" y2="100%"><stop offset="0%" stop-color="#134e4a"/><stop offset="100%" stop-color="#042f2e"/></linearGradient><linearGradient id="d1" x1="0%" y1="0%" x2="100%" y2="80%"><stop offset="0%" stop-color="#2dd4bf"/><stop offset="100%" stop-color="#14b8a6"/></linearGradient><linearGradient id="d2" x1="20%" y1="0%" x2="80%" y2="100%"><stop offset="0%" stop-color="#14b8a6"/><stop offset="100%" stop-color="#0d9488"/></linearGradient></defs><rect width="120" height="120" fill="url(#d-bg)"/><g clip-path="url(#c-d)"><rect width="120" height="120" fill="url(#d-bg)"/><path d="M14,120 L14,94 Q20,86 28,82 L35,84 Q38,94 40,108 L42,120 Z" fill="url(#d1)" opacity="0.35"/><path d="M22,74 Q16,56 22,38 Q30,20 50,14 Q65,10 75,20 Q66,32 62,46 Q58,62 65,76 Q58,84 46,88 L28,84 Q24,80 22,74 Z" fill="url(#d1)"/><path d="M50,14 Q68,6 82,16 Q72,28 68,44 Q64,58 68,70 L62,74 Q58,66 56,54 Q54,38 50,14 Z" fill="url(#d2)"/><path d="M68,64 Q74,60 82,64 Q86,70 82,76 Q76,78 70,74 Q66,70 68,64 Z" fill="url(#d1)"/><path d="M70,74 Q76,80 72,88 Q66,92 60,90 Q64,84 66,78 Q68,76 70,74 Z" fill="url(#d2)"/><path d="M60,90 Q54,94 46,94 Q42,90 50,86 Q56,86 60,90 Z" fill="url(#d1)" opacity="0.8"/><path d="M30,44 Q38,36 48,34 Q45,44 42,54 Q38,62 34,58 Q32,54 30,44 Z" fill="url(#d2)" opacity="0.5"/><path d="M82,16 Q96,24 98,44 Q96,60 88,72 Q82,68 82,64 Q90,54 88,40 Q86,28 82,16 Z" fill="url(#d1)" opacity="0.3"/><path d="M75,20 Q82,12 92,10 Q100,18 96,26 L82,16 Q78,17 75,20 Z" fill="url(#d2)" opacity="0.4"/><path d="M8,70 Q12,55 10,40 Q15,50 12,65 Q10,72 8,70 Z" fill="url(#d1)" opacity="0.25"/><path d="M6,85 Q10,72 8,58 Q14,70 10,82 Q8,88 6,85 Z" fill="url(#d2)" opacity="0.2"/></g><circle cx="60" cy="60" r="56" fill="none" stroke="#14b8a6" stroke-width="3"/></svg>