<svg viewBox="0 0 120 120" xmlns="http://www.w3.org/2000/svg"><defs><clipPath id="c"><circle cx="60" cy="60" r="56"/></clipPath><linearGradient id="bg" x1="0%" y1="0%" x2="100%" y2="100%"><stop offset="0%" stop-color="#365314"/><stop offset="100%" stop-color="#1a2e05"/></linearGradient><linearGradient id="g1" x1="0%" y1="0%" x2="100%" y2="80%"><stop offset="0%" stop-color="#84cc16"/><stop offset="100%" stop-color="#65a30d"/></linearGradient><linearGradient id="g2" x1="20%" y1="0%" x2="80%" y2="100%"><stop offset="0%" stop-color="#a3e635"/><stop offset="100%" stop-color="#4d7c0f"/></linearGradient></defs><rect width="120" height="120" fill="url(#bg)"/><g clip-path="url(#c)"><rect width="120" height="120" fill="url(#bg)"/><path d="M22,82 Q18,68 22,52 Q30,35 48,28 Q62,24 75,35 Q65,48 62,65 Q58,80 65,95 L50,100 Q42,88 42,72 Q42,58 35,50 Q28,55 25,70 Q25,85 32,98 L20,98 Q16,90 22,82 Z" fill="url(#g1)"/><path d="M48,28 Q68,20 85,35 Q75,52 70,70 Q66,88 74,105 L58,110 Q52,95 54,78 Q56,60 48,28 Z" fill="url(#g2)"/><path d="M68,58 Q78,50 92,60 Q98,72 92,84 Q82,90 72,84 Q66,74 68,58 Z" fill="url(#g1)"/><path d="M72,84 Q82,96 76,110 Q66,118 58,112 Q66,102 70,92 Q72,88 72,84 Z" fill="url(#g2)"/><path d="M32,45 Q44,35 56,42 Q52,55 46,68 Q40,78 34,74 Q28,65 32,45 Z" fill="url(#g2)" opacity="0.6"/><path d="M55,22 Q68,15 80,25 Q72,35 65,30 Q60,26 55,22 Z" fill="url(#g1)" opacity="0.7"/><path d="M45,15 Q55,8 68,15 Q60,24 52,20 Q48,18 45,15 Z" fill="url(#g2)" opacity="0.5"/></g><circle cx="60" cy="60" r="56" fill="none" stroke="#84cc16" stroke-width="3"/></svg>