<svg viewBox="0 0 120 120" xmlns="http://www.w3.org/2000/svg"><defs><clipPath id="c"><circle cx="60" cy="60" r="56"/></clipPath><linearGradient id="bg" x1="0%" y1="0%" x2="100%" y2="100%"><stop offset="0%" stop-color="#312e81"/><stop offset="100%" stop-color="#1e1b4b"/></linearGradient><linearGradient id="g1" x1="0%" y1="0%" x2="100%" y2="80%"><stop offset="0%" stop-color="#818cf8"/><stop offset="100%" stop-color="#6366f1"/></linearGradient><linearGradient id="g2" x1="20%" y1="0%" x2="80%" y2="100%"><stop offset="0%" stop-color="#6366f1"/><stop offset="100%" stop-color="#4f46e5"/></linearGradient></defs><rect width="120" height="120" fill="url(#bg)"/><g clip-path="url(#c)"><rect width="120" height="120" fill="url(#bg)"/><path d="M18,80 Q12,62 18,44 Q28,24 50,18 Q68,14 82,28 Q72,46 68,66 Q64,86 72,104 L54,110 Q46,94 46,76 Q46,58 38,48 Q28,54 24,72 Q24,90 32,106 L16,106 Q10,96 18,80 Z" fill="url(#g1)"/><path d="M50,18 Q72,10 92,28 Q80,50 76,72 Q72,94 80,114 L62,118 Q56,100 58,80 Q60,60 50,18 Z" fill="url(#g2)"/><path d="M72,56 Q84,46 100,60 Q108,76 100,92 Q88,98 76,90 Q68,78 72,56 Z" fill="url(#g1)"/><path d="M76,90 Q88,104 80,118 L64,118 Q72,106 76,96 Q78,93 76,90 Z" fill="url(#g2)"/><path d="M34,40 Q48,28 62,38 Q58,54 52,70 Q44,84 38,80 Q30,70 34,40 Z" fill="url(#g2)" opacity="0.5"/><path d="M58,10 Q72,2 88,12 Q80,24 72,20 Q66,16 58,10 Z" fill="url(#g1)" opacity="0.7"/><path d="M10,55 Q18,48 15,60 Q12,68 10,62 L10,55 Z" fill="url(#g2)" opacity="0.4"/><path d="M8,72 Q16,65 14,78 Q10,85 8,80 L8,72 Z" fill="url(#g1)" opacity="0.35"/></g><circle cx="60" cy="60" r="56" fill="none" stroke="#818cf8" stroke-width="3"/></svg>