<svg viewBox="0 0 120 120" xmlns="http://www.w3.org/2000/svg"><defs><clipPath id="c"><circle cx="60" cy="60" r="56"/></clipPath><linearGradient id="bg" x1="0%" y1="0%" x2="100%" y2="100%"><stop offset="0%" stop-color="#44403c"/><stop offset="100%" stop-color="#1c1917"/></linearGradient><linearGradient id="g1" x1="0%" y1="0%" x2="100%" y2="80%"><stop offset="0%" stop-color="#d6d3d1"/><stop offset="100%" stop-color="#a8a29e"/></linearGradient><linearGradient id="g2" x1="20%" y1="0%" x2="80%" y2="100%"><stop offset="0%" stop-color="#a8a29e"/><stop offset="100%" stop-color="#78716c"/></linearGradient></defs><rect width="120" height="120" fill="url(#bg)"/><g clip-path="url(#c)"><rect width="120" height="120" fill="url(#bg)"/><path d="M15,85 Q10,70 15,55 Q22,38 40,30 Q55,25 68,35 Q58,48 55,62 Q52,78 60,92 L45,98 Q38,85 38,70 Q38,55 30,48 Q22,55 20,70 Q20,85 28,98 L15,98 Q10,92 15,85 Z" fill="url(#g1)"/><path d="M40,30 Q60,22 78,35 Q68,52 64,70 Q60,88 68,105 L52,110 Q48,95 48,78 Q48,60 40,30 Z" fill="url(#g2)"/><path d="M64,55 Q74,48 88,58 Q95,72 88,85 Q78,90 68,82 Q62,72 64,55 Z" fill="url(#g1)"/><path d="M68,82 Q78,95 72,108 Q62,115 54,110 Q62,100 66,90 Q68,86 68,82 Z" fill="url(#g2)"/><path d="M28,42 Q40,32 52,38 Q48,50 42,62 Q35,72 30,68 Q25,60 28,42 Z" fill="url(#g2)" opacity="0.6"/><path d="M50,18 Q62,10 75,18 Q68,28 60,25 Q55,22 50,18 Z" fill="url(#g1)" opacity="0.7"/><path d="M70,20 Q80,12 92,22 Q85,32 78,28 Q72,24 70,20 Z" fill="url(#g2)" opacity="0.5"/></g><circle cx="60" cy="60" r="56" fill="none" stroke="#a8a29e" stroke-width="3"/></svg>