<svg viewBox="0 0 120 120" xmlns="http://www.w3.org/2000/svg"><defs><clipPath id="c"><circle cx="60" cy="60" r="56"/></clipPath><linearGradient id="bg" x1="0%" y1="0%" x2="100%" y2="100%"><stop offset="0%" stop-color="#450a0a"/><stop offset="100%" stop-color="#1c0505"/></linearGradient><linearGradient id="g1" x1="0%" y1="0%" x2="100%" y2="80%"><stop offset="0%" stop-color="#dc2626"/><stop offset="100%" stop-color="#991b1b"/></linearGradient><linearGradient id="g2" x1="20%" y1="0%" x2="80%" y2="100%"><stop offset="0%" stop-color="#b91c1c"/><stop offset="100%" stop-color="#7f1d1d"/></linearGradient></defs><rect width="120" height="120" fill="url(#bg)"/><g clip-path="url(#c)"><rect width="120" height="120" fill="url(#bg)"/><path d="M20,80 Q15,65 20,48 Q28,30 48,22 Q65,18 78,30 Q68,45 64,62 Q60,80 68,95 L52,102 Q44,88 44,72 Q44,56 36,48 Q28,54 25,70 Q25,85 32,100 L18,100 Q14,92 20,80 Z" fill="url(#g1)"/><path d="M48,22 Q70,14 88,30 Q78,50 72,70 Q68,88 76,108 L60,112 Q54,96 56,78 Q58,58 48,22 Z" fill="url(#g2)"/><path d="M70,55 Q80,46 95,58 Q102,72 95,86 Q84,92 74,85 Q68,74 70,55 Z" fill="url(#g1)"/><path d="M74,85 Q85,98 78,112 Q68,120 60,115 Q68,104 72,94 Q74,90 74,85 Z" fill="url(#g2)"/><path d="M32,42 Q45,32 58,40 Q54,54 48,68 Q42,80 35,76 Q28,66 32,42 Z" fill="url(#g2)" opacity="0.6"/><path d="M55,12 Q65,5 80,12 Q72,22 65,18 Q60,15 55,12 Z" fill="url(#g1)" opacity="0.8"/><path d="M70,8 Q82,2 95,12 Q88,22 80,18 Q74,12 70,8 Z" fill="url(#g2)" opacity="0.6"/></g><circle cx="60" cy="60" r="56" fill="none" stroke="#dc2626" stroke-width="3"/></svg>