<svg viewBox="0 0 120 120" xmlns="http://www.w3.org/2000/svg"><defs><clipPath id="c"><circle cx="60" cy="60" r="56"/></clipPath><linearGradient id="bg" x1="0%" y1="0%" x2="100%" y2="100%"><stop offset="0%" stop-color="#1c1917"/><stop offset="100%" stop-color="#0c0a09"/></linearGradient><linearGradient id="g1" x1="0%" y1="0%" x2="100%" y2="80%"><stop offset="0%" stop-color="#57534e"/><stop offset="100%" stop-color="#292524"/></linearGradient><linearGradient id="g2" x1="20%" y1="0%" x2="80%" y2="100%"><stop offset="0%" stop-color="#44403c"/><stop offset="100%" stop-color="#1c1917"/></linearGradient></defs><rect width="120" height="120" fill="url(#bg)"/><g clip-path="url(#c)"><rect width="120" height="120" fill="url(#bg)"/><path d="M30,70 Q25,55 32,42 Q42,30 58,28 Q72,28 80,42 Q72,52 68,65 Q65,78 72,90 L58,95 Q52,82 52,68 Q52,55 45,48 Q38,52 35,65 Q35,78 42,92 L30,92 Q25,82 30,70 Z" fill="url(#g1)"/><path d="M58,28 Q78,25 92,42 Q82,58 78,75 Q75,90 82,105 L68,108 Q64,92 65,75 Q66,58 58,28 Z" fill="url(#g2)"/><path d="M70,58 Q78,50 90,58 Q95,68 90,78 Q82,82 74,78 Q68,70 70,58 Z" fill="url(#g1)"/><path d="M74,78 Q82,88 78,100 Q70,108 62,105 Q68,96 72,86 Q74,82 74,78 Z" fill="url(#g2)"/><path d="M8,45 Q18,35 28,45 Q22,55 15,50 Q10,48 8,45 Z" fill="url(#g1)" opacity="0.6"/><path d="M5,70 Q15,60 25,72 Q18,82 10,78 Q5,75 5,70 Z" fill="url(#g2)" opacity="0.5"/><path d="M95,35 Q105,28 112,40 Q108,50 100,48 Q96,42 95,35 Z" fill="url(#g1)" opacity="0.5"/><path d="M100,60 Q110,55 115,68 Q112,78 105,75 Q100,70 100,60 Z" fill="url(#g2)" opacity="0.4"/></g><circle cx="60" cy="60" r="56" fill="none" stroke="#57534e" stroke-width="3"/></svg>