<svg viewBox="0 0 120 120" xmlns="http://www.w3.org/2000/svg"><defs><clipPath id="c"><circle cx="60" cy="60" r="56"/></clipPath><linearGradient id="bg" x1="0%" y1="0%" x2="100%" y2="100%"><stop offset="0%" stop-color="#134e4a"/><stop offset="100%" stop-color="#042f2e"/></linearGradient><linearGradient id="g1" x1="0%" y1="0%" x2="100%" y2="80%"><stop offset="0%" stop-color="#2dd4bf"/><stop offset="100%" stop-color="#0d9488"/></linearGradient><linearGradient id="g2" x1="20%" y1="0%" x2="80%" y2="100%"><stop offset="0%" stop-color="#14b8a6"/><stop offset="100%" stop-color="#0f766e"/></linearGradient></defs><rect width="120" height="120" fill="url(#bg)"/><g clip-path="url(#c)"><rect width="120" height="120" fill="url(#bg)"/><path d="M18,78 Q12,62 18,45 Q28,28 50,22 Q68,18 80,30 Q70,45 65,62 Q60,78 68,92 L52,98 Q45,85 45,68 Q45,52 38,45 Q30,50 28,65 Q28,80 35,95 L22,95 Q15,88 18,78 Z" fill="url(#g1)"/><path d="M50,22 Q72,15 88,32 Q78,50 72,68 Q68,85 75,100 L62,105 Q58,90 58,72 Q58,55 50,22 Z" fill="url(#g2)"/><path d="M72,55 Q80,48 92,55 Q98,65 92,75 Q84,80 76,75 Q70,68 72,55 Z" fill="url(#g1)"/><path d="M76,75 Q85,85 80,98 Q72,105 64,102 Q70,94 74,84 Q76,80 76,75 Z" fill="url(#g2)"/><path d="M35,38 Q48,30 60,35 Q55,48 50,60 Q44,72 38,68 Q32,60 35,38 Z" fill="url(#g2)" opacity="0.6"/><path d="M92,55 Q100,48 108,55 Q105,62 100,58 Q95,54 92,55 Z" fill="url(#g1)" opacity="0.7"/><path d="M5,65 Q12,55 8,70 Q6,78 5,75 L5,65 Z" fill="url(#g2)" opacity="0.4"/></g><circle cx="60" cy="60" r="56" fill="none" stroke="#2dd4bf" stroke-width="3"/></svg>