<svg viewBox="0 0 120 120" xmlns="http://www.w3.org/2000/svg"><defs><clipPath id="c"><circle cx="60" cy="60" r="56"/></clipPath><linearGradient id="bg" x1="0%" y1="0%" x2="100%" y2="100%"><stop offset="0%" stop-color="#1e293b"/><stop offset="100%" stop-color="#0f172a"/></linearGradient><linearGradient id="g1" x1="0%" y1="0%" x2="100%" y2="80%"><stop offset="0%" stop-color="#e2e8f0"/><stop offset="100%" stop-color="#94a3b8"/></linearGradient><linearGradient id="g2" x1="20%" y1="0%" x2="80%" y2="100%"><stop offset="0%" stop-color="#cbd5e1"/><stop offset="100%" stop-color="#64748b"/></linearGradient></defs><rect width="120" height="120" fill="url(#bg)"/><g clip-path="url(#c)"><rect width="120" height="120" fill="url(#bg)"/><path d="M20,120 Q18,100 22,80 Q28,60 45,45 Q58,35 70,40 Q62,52 58,68 Q55,85 60,100 L55,120 Z" fill="url(#g1)" opacity="0.6"/><path d="M45,45 Q60,32 78,42 Q68,55 64,72 Q60,88 65,105 L58,110 Q55,95 54,78 Q53,60 45,45 Z" fill="url(#g2)" opacity="0.5"/><path d="M65,60 Q72,55 80,60 Q85,68 80,76 Q74,78 68,74 Q64,68 65,60 Z" fill="url(#g1)" opacity="0.7"/><path d="M68,74 Q75,82 70,92 Q64,98 58,95 Q62,88 65,80 Q67,77 68,74 Z" fill="url(#g2)" opacity="0.6"/><path d="M30,65 Q38,55 48,54 Q45,65 42,78 Q38,88 32,85 Q28,78 30,65 Z" fill="url(#g1)" opacity="0.4"/><path d="M78,42 Q90,48 95,65 Q95,82 88,95 Q82,88 80,76 Q82,62 78,42 Z" fill="url(#g2)" opacity="0.3"/><path d="M35,110 Q38,95 42,115 Q45,120 40,120 L35,120 Z" fill="url(#g1)" opacity="0.5"/><path d="M70,108 Q75,98 80,115 L80,120 L72,120 Q70,115 70,108 Z" fill="url(#g2)" opacity="0.4"/></g><circle cx="60" cy="60" r="56" fill="none" stroke="#94a3b8" stroke-width="3"/></svg>