<svg viewBox="0 0 120 120" xmlns="http://www.w3.org/2000/svg"><defs><clipPath id="c"><circle cx="60" cy="60" r="56"/></clipPath><linearGradient id="bg" x1="0%" y1="0%" x2="100%" y2="100%"><stop offset="0%" stop-color="#7c2d12"/><stop offset="100%" stop-color="#431407"/></linearGradient><linearGradient id="g1" x1="0%" y1="0%" x2="100%" y2="80%"><stop offset="0%" stop-color="#fb923c"/><stop offset="100%" stop-color="#f97316"/></linearGradient><linearGradient id="g2" x1="20%" y1="0%" x2="80%" y2="100%"><stop offset="0%" stop-color="#f97316"/><stop offset="100%" stop-color="#ea580c"/></linearGradient></defs><rect width="120" height="120" fill="url(#bg)"/><g clip-path="url(#c)"><rect width="120" height="120" fill="url(#bg)"/><path d="M18,84 Q10,66 18,46 Q30,24 55,18 Q75,14 90,32 Q78,52 74,76 Q70,98 78,118 L60,120 Q52,104 52,84 Q52,64 44,54 Q34,60 30,80 Q30,100 38,118 L18,118 Q8,106 18,84 Z" fill="url(#g1)"/><path d="M55,18 Q80,10 100,32 Q88,58 84,84 Q80,108 88,120 L68,120 Q62,108 64,86 Q66,64 55,18 Z" fill="url(#g2)"/><path d="M76,64 Q90,54 106,70 Q114,88 106,104 Q94,110 82,102 Q74,90 76,64 Z" fill="url(#g1)"/><path d="M82,102 Q94,116 86,120 L70,120 Q78,114 82,106 Q84,103 82,102 Z" fill="url(#g2)"/><path d="M36,46 Q52,34 68,46 Q62,66 56,86 Q48,102 42,98 Q34,88 36,46 Z" fill="url(#g2)" opacity="0.5"/><path d="M62,10 Q78,2 96,16 Q86,30 78,26 Q70,20 62,10 Z" fill="url(#g1)" opacity="0.7"/><path d="M20,58 Q28,50 35,60 Q30,70 24,65 Q20,62 20,58 Z" fill="url(#g2)" opacity="0.4"/><path d="M15,75 Q22,68 28,78 Q24,88 18,84 Q15,80 15,75 Z" fill="url(#g1)" opacity="0.35"/></g><circle cx="60" cy="60" r="56" fill="none" stroke="#fb923c" stroke-width="3"/></svg>