<svg viewBox="0 0 120 120" xmlns="http://www.w3.org/2000/svg"><defs><clipPath id="c"><circle cx="60" cy="60" r="56"/></clipPath><linearGradient id="bg" x1="0%" y1="0%" x2="100%" y2="100%"><stop offset="0%" stop-color="#3d5c1f"/><stop offset="100%" stop-color="#1a2e0d"/></linearGradient><linearGradient id="g1" x1="0%" y1="0%" x2="100%" y2="80%"><stop offset="0%" stop-color="#7cb342"/><stop offset="100%" stop-color="#558b2f"/></linearGradient><linearGradient id="g2" x1="20%" y1="0%" x2="80%" y2="100%"><stop offset="0%" stop-color="#689f38"/><stop offset="100%" stop-color="#33691e"/></linearGradient></defs><rect width="120" height="120" fill="url(#bg)"/><g clip-path="url(#c)"><rect width="120" height="120" fill="url(#bg)"/><path d="M25,85 Q20,75 22,65 Q28,55 40,50 Q50,48 55,55 Q52,62 48,70 Q45,78 40,82 L28,84 Q26,85 25,85 Z" fill="url(#g1)"/><path d="M40,50 Q52,42 65,48 Q58,55 55,62 Q52,70 55,78 L48,82 Q45,75 44,65 Q43,55 40,50 Z" fill="url(#g2)"/><path d="M55,65 Q62,60 70,64 Q74,70 70,76 Q65,78 60,74 Q56,70 55,65 Z" fill="url(#g1)"/><path d="M60,74 Q65,80 62,88 Q58,92 52,90 Q55,85 57,80 Q59,77 60,74 Z" fill="url(#g2)"/><path d="M52,90 Q48,94 42,95 Q38,92 44,88 Q49,87 52,90 Z" fill="url(#g1)" opacity="0.8"/><path d="M35,58 Q42,52 50,52 Q48,58 45,65 Q42,72 38,70 Q35,66 35,58 Z" fill="url(#g2)" opacity="0.6"/><path d="M45,35 Q55,28 65,35 Q60,40 55,48 L50,48 Q48,42 45,35 Z" fill="url(#g1)" opacity="0.7"/><path d="M55,28 Q65,22 75,30 Q70,38 65,42 L60,40 Q58,34 55,28 Z" fill="url(#g2)" opacity="0.5"/></g><circle cx="60" cy="60" r="56" fill="none" stroke="#7cb342" stroke-width="3"/></svg>