<svg viewBox="0 0 120 120" xmlns="http://www.w3.org/2000/svg"><defs><clipPath id="c"><circle cx="60" cy="60" r="56"/></clipPath><linearGradient id="bg" x1="0%" y1="0%" x2="100%" y2="100%"><stop offset="0%" stop-color="#0c4a6e"/><stop offset="100%" stop-color="#082f49"/></linearGradient><linearGradient id="g1" x1="0%" y1="0%" x2="100%" y2="80%"><stop offset="0%" stop-color="#38bdf8"/><stop offset="100%" stop-color="#0ea5e9"/></linearGradient><linearGradient id="g2" x1="20%" y1="0%" x2="80%" y2="100%"><stop offset="0%" stop-color="#0ea5e9"/><stop offset="100%" stop-color="#0284c7"/></linearGradient></defs><rect width="120" height="120" fill="url(#bg)"/><g clip-path="url(#c)"><rect width="120" height="120" fill="url(#bg)"/><path d="M5,78 Q0,60 8,42 Q18,22 42,16 Q62,12 78,28 Q68,46 64,68 Q60,90 68,110 L50,116 Q42,98 42,78 Q42,58 34,48 Q24,54 20,74 Q20,94 28,112 L10,112 Q2,100 5,78 Z" fill="url(#g1)"/><path d="M42,16 Q66,8 88,28 Q76,52 72,78 Q68,102 76,120 L58,120 Q52,104 54,82 Q56,60 42,16 Z" fill="url(#g2)"/><path d="M70,58 Q82,48 98,62 Q106,78 98,94 Q86,100 74,92 Q66,80 70,58 Z" fill="url(#g1)"/><path d="M74,92 Q86,106 78,120 L62,120 Q70,108 74,98 Q76,95 74,92 Z" fill="url(#g2)"/><path d="M30,38 Q44,26 60,38 Q56,54 50,72 Q42,86 36,82 Q28,72 30,38 Z" fill="url(#g2)" opacity="0.5"/><path d="M55,8 Q70,0 88,12 Q78,24 70,20 Q62,16 55,8 Z" fill="url(#g1)" opacity="0.7"/><path d="M98,62 Q108,55 115,68 Q112,78 105,74 Q100,70 98,62 Z" fill="url(#g2)" opacity="0.5"/><path d="M100,78 Q110,72 116,86 Q114,95 108,92 Q102,88 100,78 Z" fill="url(#g1)" opacity="0.4"/></g><circle cx="60" cy="60" r="56" fill="none" stroke="#38bdf8" stroke-width="3"/></svg>