<svg xmlns="http://www.w3.org/2000/svg" style="display:none">
  <!-- Custom Icon Sprite Sheet for Wordy Weapon -->
  <!-- Art style: Muted gradients with dark backgrounds, matching portrait aesthetics -->

  <defs>
    <!-- Shared gradients -->
    <linearGradient id="icon-gold" x1="0%" y1="0%" x2="100%" y2="100%">
      <stop offset="0%" stop-color="#fbbf24"/>
      <stop offset="50%" stop-color="#f59e0b"/>
      <stop offset="100%" stop-color="#d97706"/>
    </linearGradient>
    <linearGradient id="icon-gold-dark" x1="0%" y1="0%" x2="100%" y2="100%">
      <stop offset="0%" stop-color="#b45309"/>
      <stop offset="100%" stop-color="#78350f"/>
    </linearGradient>
    <linearGradient id="icon-steel" x1="0%" y1="0%" x2="100%" y2="100%">
      <stop offset="0%" stop-color="#9ca3af"/>
      <stop offset="100%" stop-color="#4b5563"/>
    </linearGradient>
    <linearGradient id="icon-steel-dark" x1="0%" y1="0%" x2="100%" y2="100%">
      <stop offset="0%" stop-color="#6b7280"/>
      <stop offset="100%" stop-color="#374151"/>
    </linearGradient>
    <linearGradient id="icon-fire" x1="0%" y1="100%" x2="100%" y2="0%">
      <stop offset="0%" stop-color="#dc2626"/>
      <stop offset="50%" stop-color="#f97316"/>
      <stop offset="100%" stop-color="#fbbf24"/>
    </linearGradient>
    <linearGradient id="icon-purple" x1="0%" y1="0%" x2="100%" y2="100%">
      <stop offset="0%" stop-color="#c084fc"/>
      <stop offset="100%" stop-color="#7c3aed"/>
    </linearGradient>
    <linearGradient id="icon-blue" x1="0%" y1="0%" x2="100%" y2="100%">
      <stop offset="0%" stop-color="#60a5fa"/>
      <stop offset="100%" stop-color="#3b82f6"/>
    </linearGradient>
    <linearGradient id="icon-earth" x1="0%" y1="0%" x2="100%" y2="100%">
      <stop offset="0%" stop-color="#84cc16"/>
      <stop offset="50%" stop-color="#22c55e"/>
      <stop offset="100%" stop-color="#0ea5e9"/>
    </linearGradient>
  </defs>

  <!-- Coin Icon (replaces ðŸ’°) -->
  <symbol id="icon-coin" viewBox="0 0 16 16">
    <ellipse cx="8" cy="9" rx="6" ry="5" fill="url(#icon-gold-dark)"/>
    <ellipse cx="8" cy="7" rx="6" ry="5" fill="url(#icon-gold)"/>
    <ellipse cx="8" cy="7" rx="4" ry="3.5" fill="none" stroke="#78350f" stroke-width="0.8" opacity="0.5"/>
    <text x="8" y="9" text-anchor="middle" font-size="6" font-weight="bold" fill="#78350f" font-family="serif">G</text>
  </symbol>

  <!-- Sword Icon (replaces âš”ï¸) -->
  <symbol id="icon-sword" viewBox="0 0 16 16">
    <path d="M3,13 L6,10 L4,8 L1,11 Z" fill="url(#icon-steel-dark)"/>
    <path d="M6,10 L13,3 L14,4 L7,11 Z" fill="url(#icon-steel)"/>
    <path d="M13,3 L14,2 L15,3 L14,4 Z" fill="#e5e7eb"/>
    <circle cx="5" cy="11" r="1" fill="url(#icon-gold)"/>
  </symbol>

  <!-- Crossed Swords Icon (for combat) -->
  <symbol id="icon-crossed-swords" viewBox="0 0 16 16">
    <path d="M2,14 L4,12 L3,11 L1,13 Z" fill="url(#icon-steel-dark)"/>
    <path d="M4,12 L12,4 L13,5 L5,13 Z" fill="url(#icon-steel)"/>
    <path d="M14,14 L12,12 L13,11 L15,13 Z" fill="url(#icon-steel-dark)"/>
    <path d="M12,12 L4,4 L3,5 L11,13 Z" fill="url(#icon-steel)"/>
    <circle cx="8" cy="8" r="1.5" fill="url(#icon-gold)"/>
  </symbol>

  <!-- Fire Icon (replaces ðŸ”¥) -->
  <symbol id="icon-fire" viewBox="0 0 16 16">
    <path d="M8,2 Q12,6 11,10 Q10,13 8,14 Q6,13 5,10 Q4,6 8,2 Z" fill="url(#icon-fire)"/>
    <path d="M8,6 Q10,8 9.5,11 Q9,13 8,13 Q7,13 6.5,11 Q6,8 8,6 Z" fill="#fef08a" opacity="0.8"/>
  </symbol>

  <!-- Skull Icon (replaces ðŸ’€) -->
  <symbol id="icon-skull" viewBox="0 0 16 16">
    <ellipse cx="8" cy="7" rx="5" ry="5.5" fill="#e5e7eb"/>
    <ellipse cx="8" cy="7" rx="4.5" ry="5" fill="url(#icon-steel)"/>
    <ellipse cx="6" cy="6" rx="1.2" ry="1.5" fill="#1f2937"/>
    <ellipse cx="10" cy="6" rx="1.2" ry="1.5" fill="#1f2937"/>
    <path d="M6,10 L7,9 L8,10 L9,9 L10,10 L9,11 L7,11 Z" fill="#1f2937"/>
    <path d="M6,13 L6,15 M8,13 L8,15 M10,13 L10,15" stroke="#9ca3af" stroke-width="1.2"/>
  </symbol>

  <!-- Sparkle/Magic Icon (replaces âœ¨) -->
  <symbol id="icon-sparkle" viewBox="0 0 16 16">
    <path d="M8,1 L9,5 L13,6 L9,7 L8,11 L7,7 L3,6 L7,5 Z" fill="url(#icon-purple)"/>
    <path d="M3,2 L3.5,4 L5.5,4.5 L3.5,5 L3,7 L2.5,5 L0.5,4.5 L2.5,4 Z" fill="#c084fc" opacity="0.7"/>
    <path d="M12,10 L12.5,12 L14.5,12.5 L12.5,13 L12,15 L11.5,13 L9.5,12.5 L11.5,12 Z" fill="#c084fc" opacity="0.7"/>
  </symbol>

  <!-- Lightning Icon (replaces âš¡) -->
  <symbol id="icon-lightning" viewBox="0 0 16 16">
    <path d="M9,1 L4,8 L7,8 L6,15 L12,7 L9,7 Z" fill="#fbbf24"/>
    <path d="M8.5,2 L5,8 L7.5,8 L6.5,13 L11,7.5 L8.5,7.5 Z" fill="#fef08a"/>
  </symbol>

  <!-- Package/Crate Icon (replaces ðŸ“¦) -->
  <symbol id="icon-crate" viewBox="0 0 16 16">
    <path d="M2,5 L8,2 L14,5 L14,12 L8,15 L2,12 Z" fill="url(#icon-steel-dark)"/>
    <path d="M2,5 L8,8 L14,5" fill="none" stroke="#4b5563" stroke-width="0.5"/>
    <path d="M8,8 L8,15" fill="none" stroke="#4b5563" stroke-width="0.5"/>
    <path d="M2,5 L8,2 L14,5 L8,8 Z" fill="url(#icon-steel)" opacity="0.8"/>
  </symbol>

  <!-- Earth/Globe Icon (replaces ðŸŒ) - Earth & Sky crate -->
  <symbol id="icon-earth-sky" viewBox="0 0 16 16">
    <circle cx="8" cy="8" r="6" fill="url(#icon-earth)"/>
    <path d="M4,6 Q6,4 8,5 Q10,6 9,8 Q8,10 6,9 Q4,8 4,6 Z" fill="#166534" opacity="0.6"/>
    <path d="M10,4 Q12,5 11,7 Q10,8 10,4 Z" fill="#166534" opacity="0.4"/>
    <circle cx="8" cy="8" r="6" fill="none" stroke="#0ea5e9" stroke-width="0.5" opacity="0.5"/>
  </symbol>

  <!-- Body & Soul Icon (replaces âœ¨) - mystical/spiritual -->
  <symbol id="icon-body-soul" viewBox="0 0 16 16">
    <circle cx="8" cy="8" r="5" fill="none" stroke="url(#icon-purple)" stroke-width="1"/>
    <circle cx="8" cy="8" r="3" fill="url(#icon-purple)" opacity="0.3"/>
    <path d="M8,3 L8.5,6 L11,6.5 L8.5,7 L8,10 L7.5,7 L5,6.5 L7.5,6 Z" fill="#c084fc"/>
  </symbol>

  <!-- Crown Icon (for Wordsmith Master achievement) -->
  <symbol id="icon-crown" viewBox="0 0 16 16">
    <path d="M2,11 L3,6 L5,8 L8,4 L11,8 L13,6 L14,11 Z" fill="url(#icon-gold)"/>
    <path d="M2,11 L14,11 L13,13 L3,13 Z" fill="url(#icon-gold-dark)"/>
    <circle cx="3" cy="6" r="1" fill="#fef08a"/>
    <circle cx="8" cy="4" r="1" fill="#fef08a"/>
    <circle cx="13" cy="6" r="1" fill="#fef08a"/>
  </symbol>

  <!-- Yin-Yang Icon (for Cinna & Antony boss) -->
  <symbol id="icon-yinyang" viewBox="0 0 16 16">
    <circle cx="8" cy="8" r="6" fill="#e5e7eb"/>
    <path d="M8,2 A6,6 0 0,1 8,14 A3,3 0 0,1 8,8 A3,3 0 0,0 8,2 Z" fill="#1f2937"/>
    <circle cx="8" cy="5" r="1" fill="#1f2937"/>
    <circle cx="8" cy="11" r="1" fill="#e5e7eb"/>
  </symbol>

  <!-- Scissors Icon (for Red Aktins boss) -->
  <symbol id="icon-scissors" viewBox="0 0 16 16">
    <circle cx="4" cy="12" r="2" fill="none" stroke="url(#icon-steel)" stroke-width="1.5"/>
    <circle cx="12" cy="12" r="2" fill="none" stroke="url(#icon-steel)" stroke-width="1.5"/>
    <path d="M5.5,10.5 L10.5,3" stroke="url(#icon-steel)" stroke-width="1.5" stroke-linecap="round"/>
    <path d="M10.5,10.5 L5.5,3" stroke="url(#icon-steel)" stroke-width="1.5" stroke-linecap="round"/>
  </symbol>

  <!-- Clipboard Icon (for Plague Doctor boss) -->
  <symbol id="icon-clipboard" viewBox="0 0 16 16">
    <rect x="3" y="3" width="10" height="12" rx="1" fill="url(#icon-steel-dark)"/>
    <rect x="4" y="4" width="8" height="10" rx="0.5" fill="#e5e7eb"/>
    <rect x="5" y="1" width="6" height="3" rx="1" fill="url(#icon-steel)"/>
    <path d="M5.5,7 L10.5,7 M5.5,9 L10.5,9 M5.5,11 L8.5,11" stroke="#6b7280" stroke-width="0.8"/>
  </symbol>

  <!-- Ellipsis Icon (for Dotdotdot boss) -->
  <symbol id="icon-ellipsis" viewBox="0 0 16 16">
    <circle cx="4" cy="8" r="1.5" fill="url(#icon-purple)"/>
    <circle cx="8" cy="8" r="1.5" fill="url(#icon-purple)" opacity="0.7"/>
    <circle cx="12" cy="8" r="1.5" fill="url(#icon-purple)" opacity="0.4"/>
  </symbol>

</svg>
