<svg viewBox="0 0 120 120" xmlns="http://www.w3.org/2000/svg"><defs><clipPath id="c-p"><circle cx="60" cy="60" r="56"/></clipPath><linearGradient id="p-bg" x1="0%" y1="0%" x2="100%" y2="100%"><stop offset="0%" stop-color="#fef3c7"/><stop offset="100%" stop-color="#fde68a"/></linearGradient><linearGradient id="p1" x1="0%" y1="0%" x2="100%" y2="80%"><stop offset="0%" stop-color="#fbbf24"/><stop offset="100%" stop-color="#f59e0b"/></linearGradient><linearGradient id="p2" x1="20%" y1="0%" x2="80%" y2="100%"><stop offset="0%" stop-color="#f59e0b"/><stop offset="100%" stop-color="#d97706"/></linearGradient></defs><rect width="120" height="120" fill="url(#p-bg)"/><g clip-path="url(#c-p)"><rect width="120" height="120" fill="url(#p-bg)"/><path d="M15,120 L15,94 Q20,86 28,82 L35,84 Q38,94 40,108 L42,120 Z" fill="url(#p1)" opacity="0.4"/><path d="M22,74 Q16,56 22,38 Q30,20 50,14 Q65,10 75,20 Q66,32 62,46 Q58,62 65,76 Q58,84 46,88 L28,84 Q24,80 22,74 Z" fill="url(#p1)"/><path d="M50,14 Q68,6 82,16 Q72,28 68,44 Q64,58 68,70 L62,74 Q58,66 56,54 Q54,38 50,14 Z" fill="url(#p2)"/><path d="M68,64 Q74,60 82,64 Q86,70 82,76 Q76,78 70,74 Q66,70 68,64 Z" fill="url(#p1)"/><path d="M70,74 Q76,80 72,88 Q66,92 60,90 Q64,84 66,78 Q68,76 70,74 Z" fill="url(#p2)"/><path d="M60,90 Q54,94 46,94 Q42,90 50,86 Q56,86 60,90 Z" fill="url(#p1)" opacity="0.8"/><path d="M30,44 Q38,36 48,34 Q45,44 42,54 Q38,62 34,58 Q32,54 30,44 Z" fill="url(#p2)" opacity="0.5"/><path d="M82,16 Q96,24 98,44 Q96,60 88,72 Q82,68 82,64 Q90,54 88,40 Q86,28 82,16 Z" fill="url(#p1)" opacity="0.35"/><path d="M75,20 Q82,12 92,10 Q100,18 96,26 L82,16 Q78,17 75,20 Z" fill="url(#p2)" opacity="0.45"/></g><circle cx="60" cy="60" r="56" fill="none" stroke="#fbbf24" stroke-width="3"/></svg>