<svg viewBox="0 0 120 120" xmlns="http://www.w3.org/2000/svg"><defs><clipPath id="c-w"><circle cx="60" cy="60" r="56"/></clipPath><linearGradient id="w-bg" x1="0%" y1="0%" x2="100%" y2="100%"><stop offset="0%" stop-color="#1f2937"/><stop offset="100%" stop-color="#0f172a"/></linearGradient><linearGradient id="w1" x1="0%" y1="0%" x2="100%" y2="80%"><stop offset="0%" stop-color="#6b7280"/><stop offset="100%" stop-color="#374151"/></linearGradient><linearGradient id="w2" x1="20%" y1="0%" x2="80%" y2="100%"><stop offset="0%" stop-color="#4b5563"/><stop offset="100%" stop-color="#1f2937"/></linearGradient></defs><rect width="120" height="120" fill="url(#w-bg)"/><g clip-path="url(#c-w)"><rect width="120" height="120" fill="url(#w-bg)"/><path d="M15,120 L15,95 Q20,85 25,80 L30,78 Q35,82 40,90 L45,120 Z" fill="url(#w1)" opacity="0.4"/><path d="M20,75 Q15,60 18,45 Q22,30 35,20 Q50,12 60,15 Q55,25 52,35 Q50,50 55,65 Q52,72 45,78 L30,80 Q25,78 20,75 Z" fill="url(#w1)"/><path d="M35,20 Q48,8 62,12 Q58,18 55,28 Q52,40 55,52 L52,58 Q48,52 45,42 Q42,30 35,20 Z" fill="url(#w2)"/><path d="M55,52 Q60,48 68,50 Q72,54 70,60 Q65,62 60,60 Q55,58 55,52 Z" fill="url(#w1)"/><path d="M60,60 Q65,65 62,72 Q58,76 52,74 Q55,70 56,66 Q58,63 60,60 Z" fill="url(#w2)"/><path d="M52,74 Q48,80 42,82 Q38,78 45,75 Q50,74 52,74 Z" fill="url(#w1)" opacity="0.8"/><path d="M25,45 Q30,38 38,35 Q35,42 32,50 Q28,55 25,50 Q24,48 25,45 Z" fill="url(#w2)" opacity="0.6"/><path d="M62,12 Q75,15 80,28 Q82,40 78,50 Q72,48 68,50 Q74,42 72,32 Q70,22 62,12 Z" fill="url(#w1)" opacity="0.3"/></g><circle cx="60" cy="60" r="56" fill="none" stroke="#4b5563" stroke-width="3"/></svg>